<svg width="136" height="27" viewBox="0 0 136 27" fill="none" xmlns="http://www.w3.org/2000/svg">
<path d="M12.8379 2.61256C13.2006 1.85502 14.2791 1.85502 14.6418 2.61256L17.1998 7.95525C17.3456 8.25972 17.6352 8.4701 17.9698 8.51465L23.8415 9.29651C24.674 9.40737 25.0073 10.4331 24.3989 11.0121L20.1082 15.0959C19.8637 15.3287 19.7531 15.6691 19.8141 16.0011L20.8849 21.827C21.0368 22.653 20.1643 23.2869 19.4256 22.8873L14.2157 20.0685C13.9188 19.9079 13.5609 19.9079 13.264 20.0685L8.05415 22.8873C7.31544 23.2869 6.44293 22.653 6.59477 21.827L7.66562 16.0011C7.72665 15.6691 7.61605 15.3287 7.37153 15.0959L3.08081 11.0121C2.47242 10.4331 2.8057 9.40737 3.63824 9.29651L9.50991 8.51465C9.84453 8.4701 10.1341 8.25972 10.2799 7.95525L12.8379 2.61256Z" fill="#FD499A"/>
<path d="M39.9667 2.61256C40.3294 1.85502 41.4079 1.85502 41.7706 2.61256L44.3286 7.95525C44.4744 8.25972 44.764 8.4701 45.0986 8.51465L50.9702 9.29651C51.8028 9.40737 52.1361 10.4331 51.5277 11.0121L47.237 15.0959C46.9924 15.3287 46.8818 15.6691 46.9429 16.0011L48.0137 21.827C48.1656 22.653 47.293 23.2869 46.5543 22.8873L41.3445 20.0685C41.0476 19.9079 40.6897 19.9079 40.3928 20.0685L35.1829 22.8873C34.4442 23.2869 33.5717 22.653 33.7235 21.827L34.7944 16.0011C34.8554 15.6691 34.7448 15.3287 34.5003 15.0959L30.2096 11.0121C29.6012 10.4331 29.9345 9.40737 30.767 9.29651L36.6387 8.51465C36.9733 8.4701 37.2629 8.25972 37.4087 7.95525L39.9667 2.61256Z" fill="#FD499A"/>
<path d="M67.0955 2.61256C67.4582 1.85502 68.5367 1.85502 68.8994 2.61256L71.4574 7.95525C71.6032 8.25972 71.8927 8.4701 72.2274 8.51465L78.099 9.29651C78.9316 9.40737 79.2649 10.4331 78.6565 11.0121L74.3657 15.0959C74.1212 15.3287 74.0106 15.6691 74.0716 16.0011L75.1425 21.827C75.2943 22.653 74.4218 23.2869 73.6831 22.8873L68.4733 20.0685C68.1764 19.9079 67.8185 19.9079 67.5216 20.0685L62.3117 22.8873C61.573 23.2869 60.7005 22.653 60.8523 21.827L61.9232 16.0011C61.9842 15.6691 61.8736 15.3287 61.6291 15.0959L57.3384 11.0121C56.73 10.4331 57.0633 9.40737 57.8958 9.29651L63.7675 8.51465C64.1021 8.4701 64.3917 8.25972 64.5374 7.95525L67.0955 2.61256Z" fill="#FD499A"/>
<path d="M94.2243 2.61256C94.587 1.85502 95.6654 1.85502 96.0282 2.61256L98.5862 7.95525C98.732 8.25972 99.0215 8.4701 99.3561 8.51465L105.228 9.29651C106.06 9.40737 106.394 10.4331 105.785 11.0121L101.495 15.0959C101.25 15.3287 101.139 15.6691 101.2 16.0011L102.271 21.827C102.423 22.653 101.551 23.2869 100.812 22.8873L95.6021 20.0685C95.3052 19.9079 94.9473 19.9079 94.6503 20.0685L89.4405 22.8873C88.7018 23.2869 87.8293 22.653 87.9811 21.827L89.052 16.0011C89.113 15.6691 89.0024 15.3287 88.7579 15.0959L84.4672 11.0121C83.8588 10.4331 84.192 9.40737 85.0246 9.29651L90.8963 8.51465C91.2309 8.4701 91.5204 8.25972 91.6662 7.95525L94.2243 2.61256Z" fill="#FD499A"/>
<path d="M121.353 2.61256C121.716 1.85502 122.794 1.85502 123.157 2.61256L125.715 7.95525C125.861 8.25972 126.15 8.4701 126.485 8.51465L132.357 9.29651C133.189 9.40737 133.522 10.4331 132.914 11.0121L128.623 15.0959C128.379 15.3287 128.268 15.6691 128.329 16.0011L129.4 21.827C129.552 22.653 128.679 23.2869 127.941 22.8873L122.731 20.0685C122.434 19.9079 122.076 19.9079 121.779 20.0685L116.569 22.8873C115.831 23.2869 114.958 22.653 115.11 21.827L116.181 16.0011C116.242 15.6691 116.131 15.3287 115.887 15.0959L111.596 11.0121C110.988 10.4331 111.321 9.40737 112.153 9.29651L118.025 8.51465C118.36 8.4701 118.649 8.25972 118.795 7.95525L121.353 2.61256Z" fill="#FD499A"/>
</svg>
